<?xml version="1.0" standalone="no"?>
<!DOCTYPE svg PUBLIC "-//W3C//DTD SVG 20010904//EN"
 "http://www.w3.org/TR/2001/REC-SVG-20010904/DTD/svg10.dtd">
<svg version="1.0" xmlns="http://www.w3.org/2000/svg"
 width="128.000000pt" height="128.000000pt" viewBox="0 0 128.000000 128.000000"
 preserveAspectRatio="xMidYMid meet">
<metadata>
Created by potrace 1.13, written by Peter Selinger 2001-2015
</metadata>
<g transform="translate(0.000000,128.000000) scale(0.100000,-0.100000)"
fill="#000000" stroke="none">
<path d="M680 1140 c0 -16 -7 -20 -38 -20 -21 0 -46 -6 -56 -13 -15 -11 -10
-13 36 -12 42 0 52 -3 49 -15 -2 -8 -6 -175 -8 -370 -2 -195 -4 -401 -6 -457
-2 -91 -1 -100 11 -77 8 16 19 23 30 20 106 -30 145 -32 62 -2 -67 24 -71 41
-51 196 6 46 11 107 11 135 0 27 4 56 8 63 7 10 66 -2 272 -53 225 -56 291
-68 269 -52 -2 2 -47 16 -99 31 -52 15 -154 46 -226 68 l-131 40 -13 83 c-7
45 -10 93 -7 106 5 19 0 27 -22 40 -27 16 -28 19 -33 120 -4 63 -13 121 -23
147 -18 45 -35 55 -35 22z"/>
<path d="M270 563 c-140 -42 -257 -78 -259 -80 -22 -16 45 -4 272 53 232 57
267 69 267 85 0 10 -6 19 -12 18 -7 0 -128 -35 -268 -76z"/>
</g>
</svg>
